<?xml version="1.0" standalone="no"?>
<!DOCTYPE svg PUBLIC "-//W3C//DTD SVG 20010904//EN"
 "http://www.w3.org/TR/2001/REC-SVG-20010904/DTD/svg10.dtd">
<svg version="1.0" xmlns="http://www.w3.org/2000/svg"
 width="500.000000pt" height="500.000000pt" viewBox="0 0 500.000000 500.000000"
 preserveAspectRatio="xMidYMid meet">
<metadata>
Created by potrace 1.14, written by Peter Selinger 2001-2017
</metadata>
<g transform="translate(0.000000,500.000000) scale(0.100000,-0.100000)"
fill="#000000" stroke="none">
<path d="M2315 4582 c-2 -3 -30 -6 -62 -8 -32 -1 -70 -7 -84 -13 -15 -5 -29
-8 -31 -5 -6 6 -209 -51 -293 -83 -151 -57 -422 -203 -433 -234 -2 -5 -8 -9
-13 -9 -6 0 -15 -5 -22 -10 -12 -11 -31 -26 -86 -70 -75 -59 -235 -228 -279
-292 -9 -13 -19 -25 -23 -28 -19 -14 -134 -203 -170 -280 -12 -25 -32 -66 -45
-92 -13 -27 -20 -48 -17 -48 4 0 2 -5 -5 -12 -7 -7 -12 -18 -12 -24 0 -7 -5
-25 -12 -41 -13 -33 -11 -26 -27 -83 -6 -25 -15 -52 -18 -60 -8 -19 -12 -37
-17 -77 -2 -18 -7 -36 -9 -40 -22 -36 -33 -603 -13 -648 4 -11 9 -31 11 -45 3
-39 15 -103 22 -120 6 -15 11 -30 16 -52 10 -42 42 -135 50 -145 5 -7 6 -16 3
-21 -3 -6 1 -15 9 -22 8 -7 15 -19 15 -27 0 -45 168 -332 262 -448 63 -76 259
-271 298 -295 22 -14 40 -28 40 -32 0 -5 7 -8 15 -8 8 0 15 -4 15 -8 0 -5 24
-24 53 -42 28 -18 63 -40 77 -49 191 -121 471 -222 709 -256 200 -27 506 -14
676 30 97 25 227 66 265 82 96 42 246 117 251 125 3 5 9 9 13 9 9 -2 120 70
124 80 2 5 8 7 13 3 5 -3 9 0 9 5 0 6 6 11 13 11 7 0 18 9 25 20 7 11 19 20
26 20 19 0 279 254 270 263 -4 4 -2 7 3 7 10 0 33 27 100 115 42 54 153 246
153 264 0 6 3 11 8 11 4 0 15 21 25 48 10 26 22 55 27 64 11 20 70 196 73 218
2 8 5 20 9 25 3 6 16 67 28 136 20 113 21 152 18 360 -5 263 -19 356 -83 540
-20 57 -37 109 -39 114 -32 103 -208 411 -260 454 -9 7 -16 17 -16 21 0 26
-222 246 -328 325 -7 6 -21 17 -31 25 -9 8 -29 21 -44 29 -15 8 -27 18 -27 23
0 4 -4 8 -10 8 -5 0 -34 16 -64 35 -115 74 -380 182 -511 209 -67 14 -91 19
-105 20 -9 1 -20 5 -25 8 -27 16 -495 35 -510 20z"/>
</g>
</svg>
